<?xml version="1.0" standalone="no"?><!DOCTYPE svg PUBLIC "-//W3C//DTD SVG 1.1//EN" "http://www.w3.org/Graphics/SVG/1.1/DTD/svg11.dtd"><svg t="1608998243948" class="icon" viewBox="0 0 1024 1024" version="1.1" xmlns="http://www.w3.org/2000/svg" p-id="2327" width="16" height="16" xmlns:xlink="http://www.w3.org/1999/xlink"><defs><style type="text/css"></style></defs><path d="M449.722947 199.412211H706.021053c130.967579 0 237.136842 106.169263 237.136842 237.136842v256.298105c0 130.967579-106.169263 237.136842-237.136842 237.136842H449.722947c-130.965895 0-237.136842-106.169263-237.136842-237.136842V436.549053c0-130.967579 106.170947-237.136842 237.136842-237.136842z m-201.205894-21.557895c0-64.299789-70.085053-104.704-125.850948-72.55579s-55.764211 112.96 0 145.111579 125.850947-8.257684 125.850948-72.555789z m239.528421 234.74021c0-68.003368-74.088421-110.736842-133.037474-76.734315s-58.950737 119.467789 0 153.470315 133.039158-8.730947 133.039158-76.736zM835.368421 692.847158c0-117.596632-128.154947-191.494737-230.123789-132.695579s-101.970526 206.593684 0 265.391158S835.368421 810.443789 835.368421 692.847158z" fill="#13227a" p-id="2328"></path></svg>